<?xml version="1.0" encoding="UTF-8" standalone="no"?><!DOCTYPE svg PUBLIC "-//W3C//DTD SVG 1.1//EN" "http://www.w3.org/Graphics/SVG/1.1/DTD/svg11.dtd"><svg width="100%" height="100%" viewBox="0 0 38 38" version="1.1" xmlns="http://www.w3.org/2000/svg" xmlns:xlink="http://www.w3.org/1999/xlink" xml:space="preserve" xmlns:serif="http://www.serif.com/" style="fill-rule:evenodd;clip-rule:evenodd;stroke-linejoin:round;stroke-miterlimit:1.41421;"><g><path d="M29.473,23.116l0,6.848l-20.947,0l0,-6.848l-4.026,0l0,8.861c0,1.111 0.9,2.012 2.016,2.012l24.967,0c1.115,0 2.016,-0.9 2.016,-2.012l0,-8.861l-4.026,0Z" style="fill-rule:nonzero;"/><path d="M18.631,22.437l-5.764,-6.965c0,0 -0.877,-0.828 0.074,-0.828c0.951,0 3.248,0 3.248,0c0,0 0,-0.557 0,-1.416c0,-2.449 0,-6.906 0,-8.723c0,0 -0.129,-0.494 0.615,-0.494c0.75,0 4.035,0 4.572,0c0.536,0 0.524,0.416 0.524,0.416l0,10.008c0,0 1.842,0 2.998,0c1.154,0 0.285,0.867 0.285,0.867c0,0 -4.904,6.51 -5.588,7.193c-0.492,0.495 -0.964,-0.058 -0.964,-0.058Z" style="fill-rule:nonzero;"/></g></svg>